<svg xmlns="http://www.w3.org/2000/svg" xmlns:xlink="http://www.w3.org/1999/xlink" width="1920" zoomAndPan="magnify" viewBox="0 0 1440 809.999993" height="1080" preserveAspectRatio="xMidYMid meet" version="1.0"><defs><clipPath id="c5b9bffead"><path d="M 401.121094 86.121094 L 1038.878906 86.121094 L 1038.878906 723.878906 L 401.121094 723.878906 Z M 401.121094 86.121094 " clip-rule="nonzero"/></clipPath><clipPath id="da62b2a921"><path d="M 720 86.121094 C 543.886719 86.121094 401.121094 228.886719 401.121094 405 C 401.121094 581.113281 543.886719 723.878906 720 723.878906 C 896.113281 723.878906 1038.878906 581.113281 1038.878906 405 C 1038.878906 228.886719 896.113281 86.121094 720 86.121094 Z M 720 86.121094 " clip-rule="nonzero"/></clipPath><clipPath id="c94b0c6eb7"><path d="M 0.121094 0.121094 L 637.878906 0.121094 L 637.878906 637.878906 L 0.121094 637.878906 Z M 0.121094 0.121094 " clip-rule="nonzero"/></clipPath><clipPath id="9b300313fa"><path d="M 319 0.121094 C 142.886719 0.121094 0.121094 142.886719 0.121094 319 C 0.121094 495.113281 142.886719 637.878906 319 637.878906 C 495.113281 637.878906 637.878906 495.113281 637.878906 319 C 637.878906 142.886719 495.113281 0.121094 319 0.121094 Z M 319 0.121094 " clip-rule="nonzero"/></clipPath><clipPath id="d717618944"><rect x="0" width="638" y="0" height="638"/></clipPath></defs><g clip-path="url(#c5b9bffead)"><g clip-path="url(#da62b2a921)"><g transform="matrix(1, 0, 0, 1, 401, 86)"><g clip-path="url(#d717618944)"><g clip-path="url(#c94b0c6eb7)"><g clip-path="url(#9b300313fa)"><path fill="#7bbf92" d="M 0.121094 0.121094 L 637.878906 0.121094 L 637.878906 637.878906 L 0.121094 637.878906 Z M 0.121094 0.121094 " fill-opacity="1" fill-rule="nonzero"/></g></g></g></g></g></g><path stroke-linecap="butt" transform="matrix(0, -0.75, 0.75, 0, 719.430906, 607.482709)" fill="none" stroke-linejoin="miter" d="M -0.00222075 5.998376 L 492.997804 5.998376 " stroke="#ffffff" stroke-width="12" stroke-opacity="1" stroke-miterlimit="4"/><path stroke-linecap="butt" transform="matrix(0.260216, -0.703411, 0.703411, 0.260216, 719.468946, 613.525357)" fill="none" stroke-linejoin="miter" d="M 0.0000127626 5.997275 L 470.182124 6.000779 " stroke="#ffffff" stroke-width="12" stroke-opacity="1" stroke-miterlimit="4"/><path stroke-linecap="butt" transform="matrix(-0.273605, -0.698313, 0.698313, -0.273605, 722.247738, 615.767149)" fill="none" stroke-linejoin="miter" d="M 0.000701415 6.000113 L 470.185362 6.000423 " stroke="#ffffff" stroke-width="12" stroke-opacity="1" stroke-miterlimit="4"/><path stroke-linecap="butt" transform="matrix(0.475301, -0.580163, 0.580163, 0.475301, 719.56269, 611.106541)" fill="none" stroke-linejoin="miter" d="M 0.000770502 5.998168 L 470.183961 6.001225 " stroke="#ffffff" stroke-width="12" stroke-opacity="1" stroke-miterlimit="4"/><path stroke-linecap="butt" transform="matrix(-0.483214, -0.573589, 0.573589, -0.483214, 719.984082, 614.321293)" fill="none" stroke-linejoin="miter" d="M -0.00000665693 6.000285 L 470.182856 5.999847 " stroke="#ffffff" stroke-width="12" stroke-opacity="1" stroke-miterlimit="4"/></svg>